<svg width="2560" height="445" viewBox="0 0 2560 445" fill="none" xmlns="http://www.w3.org/2000/svg">
<g filter="url(#filter0_d_149_74)">
<path d="M30 26H94.1604V90.1667H30V26ZM94.1604 26H158.321V90.1667H94.1604V26ZM158.321 26H222.481V90.1667H158.321V26ZM94.1604 90.1667H158.321V154.333H94.1604V90.1667ZM94.1604 154.333H158.321V218.5H94.1604V154.333ZM94.1604 218.5H158.321V282.667H94.1604V218.5ZM94.1604 282.667H158.321V346.833H94.1604V282.667Z" fill="#F04939"/>
<path d="M286.391 26H350.551V90.1667H286.391V26ZM286.391 90.1667H350.551V154.333H286.391V90.1667ZM286.391 154.333H350.551V218.5H286.391V154.333ZM286.391 218.5H350.551V282.667H286.391V218.5ZM286.391 282.667H350.551V346.833H286.391V282.667ZM350.551 90.1667H414.712V154.333H350.551V90.1667ZM414.712 154.333H478.872V218.5H414.712V154.333ZM414.712 218.5H478.872V282.667H414.712V218.5ZM414.712 282.667H478.872V346.833H414.712V282.667Z" fill="#F04939"/>
<path d="M606.942 90.1667H671.103V154.333H606.942V90.1667ZM671.103 154.333H735.263V218.5H671.103V154.333ZM542.782 154.333H606.942V218.5H542.782V154.333ZM671.103 218.5H735.263V282.667H671.103V218.5ZM606.942 218.5H671.103V282.667H606.942V218.5ZM542.782 218.5H606.942V282.667H542.782V218.5ZM542.782 282.667H606.942V346.833H542.782V282.667ZM606.942 346.833H671.103V411H606.942V346.833Z" fill="#F04939"/>
<path d="M991.466 26H1055.63V90.1667H991.466V26ZM1055.63 26H1119.79V90.1667H1055.63V26ZM1119.79 26H1183.95V90.1667H1119.79V26ZM1119.79 90.1667H1183.95V154.333H1119.79V90.1667ZM1055.63 218.5H1119.79V282.667H1055.63V218.5ZM1055.63 282.667H1119.79V346.833H1055.63V282.667ZM1119.79 154.333H1183.95V218.5H1119.79V154.333Z" fill="#F04939"/>
<path d="M1247.86 26H1312.02V90.1667H1247.86V26ZM1247.86 90.1667H1312.02V154.333H1247.86V90.1667ZM1247.86 154.333H1312.02V218.5H1247.86V154.333ZM1247.86 218.5H1312.02V282.667H1247.86V218.5ZM1247.86 282.667H1312.02V346.833H1247.86V282.667ZM1312.02 282.667H1376.18V346.833H1312.02V282.667ZM1312.02 90.1667H1376.18V154.333H1312.02V90.1667Z" fill="#F04939"/>
<path d="M1440.15 26H1504.31V90.1667H1440.15V26ZM1440.15 90.1667H1504.31V154.333H1440.15V90.1667ZM1440.15 154.333H1504.31V218.5H1440.15V154.333ZM1440.15 218.5H1504.31V282.667H1440.15V218.5ZM1440.15 282.667H1504.31V346.833H1440.15V282.667ZM1504.31 90.1667H1568.47V154.333H1504.31V90.1667ZM1568.47 154.333H1632.63V218.5H1568.47V154.333ZM1568.47 218.5H1632.63V282.667H1568.47V218.5ZM1568.47 282.667H1632.63V346.833H1568.47V282.667Z" fill="#F04939"/>
<path d="M1888.83 26H1952.99V90.1667H1888.83V26ZM1888.83 90.1667H1952.99V154.333H1888.83V90.1667ZM1888.83 154.333H1952.99V218.5H1888.83V154.333ZM1888.83 218.5H1952.99V282.667H1888.83V218.5ZM1888.83 282.667H1952.99V346.833H1888.83V282.667ZM1952.99 282.667H2017.16V346.833H1952.99V282.667Z" fill="#F04939"/>
<path d="M2209.45 90.1667H2273.61V154.333H2209.45V90.1667ZM2209.45 154.333H2273.61V218.5H2209.45V154.333ZM2209.45 218.5H2273.61V282.667H2209.45V218.5ZM2209.45 282.667H2273.61V346.833H2209.45V282.667ZM2145.29 90.1667H2209.45V154.333H2145.29V90.1667ZM2145.29 282.667H2209.45V346.833H2145.29V282.667ZM2081.13 154.333H2145.29V218.5H2081.13V154.333ZM2081.13 218.5H2145.29V282.667H2081.13V218.5Z" fill="#F04939"/>
<path d="M2337.52 26H2401.68V90.1667H2337.52V26ZM2337.52 90.1667H2401.68V154.333H2337.52V90.1667ZM2337.52 154.333H2401.68V218.5H2337.52V154.333ZM2337.52 218.5H2401.68V282.667H2337.52V218.5ZM2337.52 282.667H2401.68V346.833H2337.52V282.667ZM2401.68 90.1667H2465.84V154.333H2401.68V90.1667ZM2465.84 154.333H2530V218.5H2465.84V154.333ZM2465.84 218.5H2530V282.667H2465.84V218.5ZM2401.68 282.667H2465.84V346.833H2401.68V282.667Z" fill="#F04939"/>
</g>
<defs>
<filter id="filter0_d_149_74" x="0" y="0" width="2560" height="445" filterUnits="userSpaceOnUse" color-interpolation-filters="sRGB">
<feFlood flood-opacity="0" result="BackgroundImageFix"/>
<feColorMatrix in="SourceAlpha" type="matrix" values="0 0 0 0 0 0 0 0 0 0 0 0 0 0 0 0 0 0 127 0" result="hardAlpha"/>
<feOffset dy="4"/>
<feGaussianBlur stdDeviation="15"/>
<feComposite in2="hardAlpha" operator="out"/>
<feColorMatrix type="matrix" values="0 0 0 0 0.941176 0 0 0 0 0.286275 0 0 0 0 0.223529 0 0 0 1 0"/>
<feBlend mode="normal" in2="BackgroundImageFix" result="effect1_dropShadow_149_74"/>
<feBlend mode="normal" in="SourceGraphic" in2="effect1_dropShadow_149_74" result="shape"/>
</filter>
</defs>
</svg>
