<svg width="2500" height="385" viewBox="0 0 2500 385" fill="none" xmlns="http://www.w3.org/2000/svg">
<path d="M0 0H64.1604V64.1667H0V0ZM64.1604 0H128.321V64.1667H64.1604V0ZM128.321 0H192.481V64.1667H128.321V0ZM64.1604 64.1667H128.321V128.333H64.1604V64.1667ZM64.1604 128.333H128.321V192.5H64.1604V128.333ZM64.1604 192.5H128.321V256.667H64.1604V192.5ZM64.1604 256.667H128.321V320.833H64.1604V256.667Z" fill="white"/>
<path d="M256.391 0H320.551V64.1667H256.391V0ZM256.391 64.1667H320.551V128.333H256.391V64.1667ZM256.391 128.333H320.551V192.5H256.391V128.333ZM256.391 192.5H320.551V256.667H256.391V192.5ZM256.391 256.667H320.551V320.833H256.391V256.667ZM320.551 64.1667H384.712V128.333H320.551V64.1667ZM384.712 128.333H448.872V192.5H384.712V128.333ZM384.712 192.5H448.872V256.667H384.712V192.5ZM384.712 256.667H448.872V320.833H384.712V256.667Z" fill="white"/>
<path d="M576.942 64.1667H641.103V128.333H576.942V64.1667ZM641.103 128.333H705.263V192.5H641.103V128.333ZM512.782 128.333H576.942V192.5H512.782V128.333ZM641.103 192.5H705.263V256.667H641.103V192.5ZM576.942 192.5H641.103V256.667H576.942V192.5ZM512.782 192.5H576.942V256.667H512.782V192.5ZM512.782 256.667H576.942V320.833H512.782V256.667ZM576.942 320.833H641.103V385H576.942V320.833Z" fill="white"/>
<path d="M961.466 0H1025.63V64.1667H961.466V0ZM1025.63 0H1089.79V64.1667H1025.63V0ZM1089.79 0H1153.95V64.1667H1089.79V0ZM1089.79 64.1667H1153.95V128.333H1089.79V64.1667ZM1025.63 192.5H1089.79V256.667H1025.63V192.5ZM1025.63 256.667H1089.79V320.833H1025.63V256.667ZM1089.79 128.333H1153.95V192.5H1089.79V128.333Z" fill="white"/>
<path d="M1217.86 0H1282.02V64.1667H1217.86V0ZM1217.86 64.1667H1282.02V128.333H1217.86V64.1667ZM1217.86 128.333H1282.02V192.5H1217.86V128.333ZM1217.86 192.5H1282.02V256.667H1217.86V192.5ZM1217.86 256.667H1282.02V320.833H1217.86V256.667ZM1282.02 256.667H1346.18V320.833H1282.02V256.667ZM1282.02 64.1667H1346.18V128.333H1282.02V64.1667Z" fill="white"/>
<path d="M1410.15 0H1474.31V64.1667H1410.15V0ZM1410.15 64.1667H1474.31V128.333H1410.15V64.1667ZM1410.15 128.333H1474.31V192.5H1410.15V128.333ZM1410.15 192.5H1474.31V256.667H1410.15V192.5ZM1410.15 256.667H1474.31V320.833H1410.15V256.667ZM1474.31 64.1667H1538.47V128.333H1474.31V64.1667ZM1538.47 128.333H1602.63V192.5H1538.47V128.333ZM1538.47 192.5H1602.63V256.667H1538.47V192.5ZM1538.47 256.667H1602.63V320.833H1538.47V256.667Z" fill="white"/>
<path d="M1858.83 0H1923V64.1667H1858.83V0ZM1858.83 64.1667H1923V128.333H1858.83V64.1667ZM1858.83 128.333H1923V192.5H1858.83V128.333ZM1858.83 192.5H1923V256.667H1858.83V192.5ZM1858.83 256.667H1923V320.833H1858.83V256.667ZM1923 256.667H1987.16V320.833H1923V256.667Z" fill="white"/>
<path d="M2179.45 64.1667H2243.61V128.333H2179.45V64.1667ZM2179.45 128.333H2243.61V192.5H2179.45V128.333ZM2179.45 192.5H2243.61V256.667H2179.45V192.5ZM2179.45 256.667H2243.61V320.833H2179.45V256.667ZM2115.29 64.1667H2179.45V128.333H2115.29V64.1667ZM2115.29 256.667H2179.45V320.833H2115.29V256.667ZM2051.13 128.333H2115.29V192.5H2051.13V128.333ZM2051.13 192.5H2115.29V256.667H2051.13V192.5Z" fill="white"/>
<path d="M2307.52 0H2371.68V64.1667H2307.52V0ZM2307.52 64.1667H2371.68V128.333H2307.52V64.1667ZM2307.52 128.333H2371.68V192.5H2307.52V128.333ZM2307.52 192.5H2371.68V256.667H2307.52V192.5ZM2307.52 256.667H2371.68V320.833H2307.52V256.667ZM2371.68 64.1667H2435.84V128.333H2371.68V64.1667ZM2435.84 128.333H2500V192.5H2435.84V128.333ZM2435.84 192.5H2500V256.667H2435.84V192.5ZM2371.68 256.667H2435.84V320.833H2371.68V256.667Z" fill="white"/>
</svg>
